<svg width="80" height="80" viewBox="0 0 80 80" fill="none" xmlns="http://www.w3.org/2000/svg">
<rect x="1" y="1" width="78" height="78" rx="39" stroke="#0068F8" stroke-width="2"/>
<g clip-path="url(#clip0_62_1787)">
<path fill-rule="evenodd" clip-rule="evenodd" d="M50.8334 22.083C47.8419 22.083 45.4167 24.5081 45.4167 27.4997C45.4167 30.4912 47.8419 32.9163 50.8334 32.9163C53.8249 32.9163 56.2501 30.4912 56.2501 27.4997C56.2501 24.5081 53.8249 22.083 50.8334 22.083ZM47.9167 27.4997C47.9167 25.8889 49.2226 24.583 50.8334 24.583C52.4442 24.583 53.7501 25.8889 53.7501 27.4997C53.7501 29.1105 52.4442 30.4163 50.8334 30.4163C49.2226 30.4163 47.9167 29.1105 47.9167 27.4997ZM36.154 27.8522C35.9615 27.3901 35.5118 27.0875 35.0112 27.0831C34.5106 27.0786 34.0556 27.3733 33.855 27.832L22.1883 54.4986C22.0192 54.8851 22.0565 55.3308 22.2874 55.6839C22.5183 56.0369 22.9117 56.2497 23.3335 56.2497H56.6668C57.1172 56.2497 57.5327 56.0074 57.7546 55.6155C57.9765 55.2237 57.9704 54.7427 57.7387 54.3566L47.7387 37.6899C47.4875 37.2713 47.0157 37.0372 46.5304 37.0905C46.0452 37.1437 45.6353 37.4746 45.481 37.9377L43.2033 44.7706L36.154 27.8522ZM54.4591 53.7497H25.2448L34.9721 31.5157L42.1797 48.8138C42.3801 49.295 42.8582 49.6012 43.3791 49.5822C43.9001 49.5631 44.3545 49.2228 44.5194 48.7283L46.9932 41.3066L54.4591 53.7497Z" fill="white"/>
<path d="M32.3 54.18L29.48 51.02L41.66 39.96C42.26 39.4267 42.7733 38.92 43.2 38.44C43.6267 37.9467 43.9733 37.4667 44.24 37C44.52 36.52 44.7267 36.0467 44.86 35.58C44.9933 35.1 45.06 34.6 45.06 34.08C45.06 33.32 44.92 32.66 44.64 32.1C44.3733 31.5267 43.9933 31.0533 43.5 30.68C43.02 30.3067 42.4533 30.0333 41.8 29.86C41.1467 29.6733 40.44 29.58 39.68 29.58C38.84 29.58 38.0667 29.7 37.36 29.94C36.6667 30.18 36.0533 30.5267 35.52 30.98C35 31.42 34.56 31.9667 34.2 32.62C33.8533 33.2733 33.6067 34.0067 33.46 34.82L29 34.06C29.28 32.74 29.7267 31.56 30.34 30.52C30.9667 29.4667 31.7333 28.58 32.64 27.86C33.56 27.14 34.6067 26.5867 35.78 26.2C36.9667 25.8133 38.2533 25.62 39.64 25.62C41 25.62 42.28 25.8 43.48 26.16C44.6933 26.5067 45.74 27.0333 46.62 27.74C47.5 28.4333 48.1933 29.32 48.7 30.4C49.2067 31.4667 49.4467 32.7133 49.42 34.14C49.42 35.02 49.2933 35.86 49.04 36.66C48.7867 37.46 48.46 38.2133 48.06 38.92C47.6733 39.6133 47.2333 40.26 46.74 40.86C46.2467 41.4467 45.7467 41.9733 45.24 42.44L32.3 54.18ZM29.48 55V51.02H49.44V55H29.48Z" fill="black"/>
</g>
<defs>
<clipPath id="clip0_62_1787">
<rect width="40" height="40" fill="white" transform="translate(20 20)"/>
</clipPath>
</defs>
</svg>
