<svg width="80" height="80" viewBox="0 0 80 80" fill="none" xmlns="http://www.w3.org/2000/svg">
<rect x="1" y="1" width="78" height="78" rx="39" stroke="#0068F8" stroke-width="2"/>
<g clip-path="url(#clip0_62_1788)">
<path fill-rule="evenodd" clip-rule="evenodd" d="M50.8334 22.083C47.8419 22.083 45.4167 24.5081 45.4167 27.4997C45.4167 30.4912 47.8419 32.9163 50.8334 32.9163C53.8249 32.9163 56.2501 30.4912 56.2501 27.4997C56.2501 24.5081 53.8249 22.083 50.8334 22.083ZM47.9167 27.4997C47.9167 25.8889 49.2226 24.583 50.8334 24.583C52.4442 24.583 53.7501 25.8889 53.7501 27.4997C53.7501 29.1105 52.4442 30.4163 50.8334 30.4163C49.2226 30.4163 47.9167 29.1105 47.9167 27.4997ZM36.154 27.8522C35.9615 27.3901 35.5118 27.0875 35.0112 27.0831C34.5106 27.0786 34.0556 27.3733 33.855 27.832L22.1883 54.4986C22.0192 54.8851 22.0565 55.3308 22.2874 55.6839C22.5183 56.0369 22.9117 56.2497 23.3335 56.2497H56.6668C57.1172 56.2497 57.5327 56.0074 57.7546 55.6155C57.9765 55.2237 57.9704 54.7427 57.7387 54.3566L47.7387 37.6899C47.4875 37.2713 47.0157 37.0372 46.5304 37.0905C46.0452 37.1437 45.6353 37.4746 45.481 37.9377L43.2033 44.7706L36.154 27.8522ZM54.4591 53.7497H25.2448L34.9721 31.5157L42.1797 48.8138C42.3801 49.295 42.8582 49.6012 43.3791 49.5822C43.9001 49.5631 44.3545 49.2228 44.5194 48.7283L46.9932 41.3066L54.4591 53.7497Z" fill="white"/>
<path d="M50.28 46.18C50.28 47.6467 50.02 48.9667 49.5 50.14C48.98 51.3 48.2533 52.2867 47.32 53.1C46.4 53.9133 45.3 54.5333 44.02 54.96C42.74 55.3867 41.3333 55.6 39.8 55.6C38.4267 55.6 37.1267 55.4267 35.9 55.08C34.6733 54.7467 33.5733 54.22 32.6 53.5C31.6267 52.78 30.7933 51.86 30.1 50.74C29.4067 49.62 28.9067 48.2867 28.6 46.74L32.92 46.08C33.12 46.9733 33.4 47.7667 33.76 48.46C34.1333 49.1533 34.6 49.74 35.16 50.22C35.72 50.6867 36.3867 51.0467 37.16 51.3C37.9333 51.54 38.84 51.66 39.88 51.66C40.7867 51.66 41.6067 51.52 42.34 51.24C43.0867 50.96 43.72 50.58 44.24 50.1C44.7733 49.62 45.18 49.06 45.46 48.42C45.7533 47.7667 45.9 47.0733 45.9 46.34C45.9 44.6733 45.3667 43.42 44.3 42.58C43.2467 41.7267 41.7467 41.3 39.8 41.3H36.66V37.86H39.88C41.56 37.86 43.04 38.0333 44.32 38.38C45.6133 38.7267 46.7 39.2467 47.58 39.94C48.46 40.6333 49.1267 41.5 49.58 42.54C50.0467 43.58 50.28 44.7933 50.28 46.18ZM30.22 26.2H49.14V30.14H30.22V26.2ZM43.96 30.14H49.14L38.48 41.18L36.66 37.86L43.96 30.14Z" fill="black"/>
</g>
<defs>
<clipPath id="clip0_62_1788">
<rect width="40" height="40" fill="white" transform="translate(20 20)"/>
</clipPath>
</defs>
</svg>
