<svg width="40" height="40" viewBox="0 0 40 40" fill="none" xmlns="http://www.w3.org/2000/svg">
<path fill-rule="evenodd" clip-rule="evenodd" d="M12.0833 4.58325C12.0833 3.8929 11.5236 3.33325 10.8333 3.33325C10.1429 3.33325 9.58325 3.8929 9.58325 4.58325V9.16675H5C4.30964 9.16675 3.75 9.72639 3.75 10.4167C3.75 11.1071 4.30964 11.6667 5 11.6667H9.58325V16.2499C9.58325 16.9403 10.1429 17.4999 10.8333 17.4999C11.5236 17.4999 12.0833 16.9403 12.0833 16.2499V11.6667H16.6667C17.357 11.6667 17.9167 11.1071 17.9167 10.4167C17.9167 9.72639 17.357 9.16675 16.6667 9.16675H12.0833V4.58325ZM23.3333 9.16675C22.6429 9.16675 22.0833 9.72639 22.0833 10.4167C22.0833 11.1071 22.6429 11.6667 23.3333 11.6667H34.9999C35.6903 11.6667 36.2499 11.1071 36.2499 10.4167C36.2499 9.72639 35.6903 9.16675 34.9999 9.16675H23.3333ZM16.4309 25.3365C16.919 24.8484 16.919 24.0569 16.4309 23.5688C15.9427 23.0806 15.1512 23.0806 14.6631 23.5688L10.8329 27.3989L7.00278 23.5688C6.51462 23.0806 5.72317 23.0806 5.23501 23.5688C4.74686 24.0569 4.74686 24.8484 5.23501 25.3365L9.06517 29.1667L5.23501 32.9968C4.74686 33.485 4.74686 34.2764 5.23501 34.7646C5.72317 35.2528 6.51463 35.2528 7.00278 34.7646L10.8329 30.9344L14.6631 34.7646C15.1513 35.2528 15.9427 35.2528 16.4309 34.7646C16.919 34.2764 16.919 33.485 16.4309 32.9968L12.6007 29.1667L16.4309 25.3365ZM22.0833 26.25C22.0833 25.5596 22.6429 25 23.3333 25H34.9999C35.6903 25 36.2499 25.5596 36.2499 26.25C36.2499 26.9404 35.6903 27.5 34.9999 27.5H23.3333C22.6429 27.5 22.0833 26.9404 22.0833 26.25ZM22.0833 32.9167C22.0833 32.2264 22.6429 31.6667 23.3333 31.6667H34.9999C35.6903 31.6667 36.2499 32.2264 36.2499 32.9167C36.2499 33.6071 35.6903 34.1667 34.9999 34.1667H23.3333C22.6429 34.1667 22.0833 33.6071 22.0833 32.9167Z" fill="#DE6B64"/>
</svg>
