<svg width="40" height="40" viewBox="0 0 40 40" fill="none" xmlns="http://www.w3.org/2000/svg">
<path fill-rule="evenodd" clip-rule="evenodd" d="M18.7213 6.33924C19.0191 6.22025 19.3512 6.22025 19.6489 6.33924L37.1674 13.3392C37.6422 13.529 37.9536 13.9887 37.9536 14.5C37.9536 14.5153 37.9533 14.5306 37.9528 14.5458C37.9533 14.561 37.9536 14.5762 37.9536 14.5916V22.2776C37.9536 22.9679 37.394 23.5276 36.7036 23.5276C36.0133 23.5276 35.4536 22.9679 35.4536 22.2776V16.3456L29.9909 18.5283V28.5556C29.9909 28.8906 29.8565 29.2116 29.6177 29.4465C29.618 29.4462 29.6177 29.4465 28.7409 28.5556L29.6177 29.4465L29.6145 29.4496L29.6099 29.4542L29.5961 29.4675C29.585 29.4782 29.5699 29.4926 29.551 29.5104C29.5132 29.546 29.4599 29.5952 29.3918 29.6563C29.2555 29.7782 29.0595 29.9475 28.8086 30.1482C28.3075 30.5488 27.5823 31.0787 26.6718 31.6083C24.8603 32.6619 22.2527 33.75 19.1853 33.75C16.118 33.75 13.5104 32.6619 11.6989 31.6083C10.7884 31.0787 10.0632 30.5488 9.56212 30.1482C9.31115 29.9475 9.11515 29.7782 8.97894 29.6563C8.9108 29.5952 8.85751 29.546 8.81968 29.5104C8.80077 29.4926 8.7857 29.4782 8.77457 29.4675L8.76082 29.4542L8.75618 29.4496L8.75441 29.4479L8.75367 29.4472L9.62976 28.5556C8.75302 29.4465 8.75333 29.4469 8.75367 29.4472C8.51488 29.2122 8.37976 28.8906 8.37976 28.5556V18.5285L1.20281 15.6608C0.728014 15.471 0.416626 15.0113 0.416626 14.5C0.416626 13.9887 0.728014 13.529 1.20281 13.3392L18.7213 6.33924ZM10.8798 19.5275V27.9959C10.9513 28.0561 11.0327 28.1231 11.1234 28.1956C11.5473 28.5346 12.1709 28.9907 12.9558 29.4473C14.5354 30.3659 16.7055 31.25 19.1853 31.25C21.6652 31.25 23.8353 30.3659 25.4149 29.4473C26.1998 28.9907 26.8234 28.5346 27.2473 28.1956C27.338 28.1231 27.4194 28.0561 27.4909 27.9959V19.5273L19.6489 22.6608C19.3512 22.7797 19.0191 22.7797 18.7213 22.6608L10.8798 19.5275ZM5.03542 14.5L19.1851 20.1539L33.3348 14.5L19.1851 8.8461L5.03542 14.5Z" fill="#65D28F"/>
</svg>
