<svg width="40" height="40" viewBox="0 0 40 40" fill="none" xmlns="http://www.w3.org/2000/svg">
<path fill-rule="evenodd" clip-rule="evenodd" d="M2.08325 15.8334C2.08325 10.0805 6.74695 5.41675 12.4999 5.41675C15.4461 5.41675 18.1064 6.64071 19.9999 8.6046C21.8934 6.64071 24.5537 5.41675 27.4999 5.41675C33.2529 5.41675 37.9166 10.0805 37.9166 15.8334C37.9166 20.8969 34.9445 25.5722 31.409 29.1428C27.8612 32.7256 23.5317 35.4155 20.3941 36.4581C20.1382 36.5432 19.8616 36.5432 19.6057 36.4581C16.4681 35.4155 12.1386 32.7256 8.59087 29.1428C5.05529 25.5722 2.08325 20.8969 2.08325 15.8334ZM12.4999 7.91675C8.12767 7.91675 4.58325 11.4612 4.58325 15.8334C4.58325 19.9366 7.02788 24.0113 10.3673 27.3837C13.536 30.5837 17.3182 32.9546 19.9999 33.9471C22.6816 32.9546 26.4639 30.5837 29.6325 27.3837C32.972 24.0113 35.4166 19.9366 35.4166 15.8334C35.4166 11.4612 31.8721 7.91675 27.4999 7.91675C24.8235 7.91675 22.4568 9.24376 21.0219 11.2813C20.7878 11.6138 20.4066 11.8116 19.9999 11.8116C19.5933 11.8116 19.212 11.6138 18.9779 11.2813C17.5431 9.24376 15.1764 7.91675 12.4999 7.91675ZM24.2173 17.5506C24.7055 17.0625 24.7055 16.271 24.2173 15.7829C23.7291 15.2947 22.9377 15.2947 22.4495 15.7829L20.0001 18.2323L17.5506 15.7829C17.0625 15.2947 16.271 15.2947 15.7829 15.7829C15.2947 16.271 15.2947 17.0625 15.7829 17.5506L18.2323 20.0001L15.7829 22.4495C15.2947 22.9377 15.2947 23.7291 15.7829 24.2173C16.271 24.7055 17.0625 24.7055 17.5506 24.2173L20.0001 21.7678L22.4495 24.2172C22.9377 24.7054 23.7292 24.7054 24.2173 24.2172C24.7055 23.7291 24.7055 22.9376 24.2173 22.4494L21.7679 20.0001L24.2173 17.5506Z" fill="#DE6B64"/>
</svg>
