<svg width="80" height="80" viewBox="0 0 80 80" fill="none" xmlns="http://www.w3.org/2000/svg">
<rect x="1" y="1" width="78" height="78" rx="39" stroke="#0068F8" stroke-width="2"/>
<path fill-rule="evenodd" clip-rule="evenodd" d="M28.75 23.3335C28.75 22.6431 29.3096 22.0835 30 22.0835H50C50.6904 22.0835 51.25 22.6431 51.25 23.3335V27.9165H56.6667C57.357 27.9165 57.9167 28.4761 57.9167 29.1665C57.9167 35.015 54.4702 38.4386 50.5467 38.7296C49.0869 42.7551 45.4993 45.7366 41.156 46.1902C41.2166 46.337 41.25 46.4978 41.25 46.6665V48.75H44.2021C44.6222 48.75 45.0142 48.961 45.2455 49.3118L48.5435 54.3117C48.7967 54.6957 48.8186 55.1876 48.6006 55.5925C48.3826 55.9975 47.9599 56.25 47.5 56.25H32.5C32.0472 56.25 31.6298 56.0051 31.4089 55.6099C31.188 55.2147 31.198 54.7309 31.4352 54.3452L34.5102 49.3452C34.7377 48.9753 35.1408 48.75 35.575 48.75H38.75V46.6665C38.75 46.4978 38.7834 46.337 38.844 46.1902C34.5008 45.7366 30.9131 42.7551 29.4533 38.7296C25.5298 38.4386 22.0833 35.0151 22.0833 29.1665C22.0833 28.4761 22.6429 27.9165 23.3333 27.9165H28.75V23.3335ZM48.75 34.7061V29.1665V24.5835H31.25V34.7061C31.25 39.7354 35.2014 43.7502 40 43.7502C44.7986 43.7502 48.75 39.7354 48.75 34.7061ZM51.25 30.4165V34.7061V36.0794C53.1649 35.5523 54.9895 33.7781 55.3518 30.4165H51.25ZM24.6481 30.4165C25.0104 33.7781 26.835 35.5523 28.7499 36.0794V30.4165H24.6481ZM34.7362 53.75L36.2737 51.25H43.5291L45.1781 53.75H34.7362Z" fill="black"/>
</svg>
