<svg width="40" height="40" viewBox="0 0 40 40" fill="none" xmlns="http://www.w3.org/2000/svg">
<path fill-rule="evenodd" clip-rule="evenodd" d="M11.6667 21.25C10.0558 21.25 8.75 22.5558 8.75 24.1667C8.75 25.7775 10.0558 27.0833 11.6667 27.0833C13.2775 27.0833 14.5833 25.7775 14.5833 24.1667C14.5833 22.5558 13.2775 21.25 11.6667 21.25ZM6.25 24.1667C6.25 21.1751 8.67512 18.75 11.6667 18.75C14.6582 18.75 17.0833 21.1751 17.0833 24.1667C17.0833 27.1582 14.6582 29.5833 11.6667 29.5833C8.67512 29.5833 6.25 27.1582 6.25 24.1667Z" fill="#DE6B64"/>
<path fill-rule="evenodd" clip-rule="evenodd" d="M28.3334 21.25C26.7226 21.25 25.4167 22.5558 25.4167 24.1667C25.4167 25.7775 26.7226 27.0833 28.3334 27.0833C29.9442 27.0833 31.2501 25.7775 31.2501 24.1667C31.2501 22.5558 29.9442 21.25 28.3334 21.25ZM22.9167 24.1667C22.9167 21.1751 25.3419 18.75 28.3334 18.75C31.325 18.75 33.7501 21.1751 33.7501 24.1667C33.7501 27.1582 31.325 29.5833 28.3334 29.5833C25.3419 29.5833 22.9167 27.1582 22.9167 24.1667Z" fill="#DE6B64"/>
<path fill-rule="evenodd" clip-rule="evenodd" d="M19.9999 4.58325C18.3891 4.58325 17.0833 5.88909 17.0833 7.49992C17.0833 9.11075 18.3891 10.4166 19.9999 10.4166C21.6107 10.4166 22.9166 9.11075 22.9166 7.49992C22.9166 5.88909 21.6107 4.58325 19.9999 4.58325ZM14.5833 7.49992C14.5833 4.50838 17.0084 2.08325 19.9999 2.08325C22.9915 2.08325 25.4166 4.50838 25.4166 7.49992C25.4166 10.4915 22.9915 12.9166 19.9999 12.9166C17.0084 12.9166 14.5833 10.4915 14.5833 7.49992Z" fill="#DE6B64"/>
<path fill-rule="evenodd" clip-rule="evenodd" d="M2.08325 36.6666C2.08325 31.3739 6.37385 27.0833 11.6666 27.0833C16.9593 27.0833 21.2499 31.3739 21.2499 36.6666C21.2499 37.3569 20.6903 37.9166 19.9999 37.9166C19.3096 37.9166 18.7499 37.3569 18.7499 36.6666C18.7499 32.7546 15.5786 29.5833 11.6666 29.5833C7.75457 29.5833 4.58325 32.7546 4.58325 36.6666C4.58325 37.3569 4.02361 37.9166 3.33325 37.9166C2.6429 37.9166 2.08325 37.3569 2.08325 36.6666Z" fill="#DE6B64"/>
<path fill-rule="evenodd" clip-rule="evenodd" d="M18.75 36.6666C18.75 31.3739 23.0406 27.0833 28.3333 27.0833C33.626 27.0833 37.9167 31.3739 37.9167 36.6666C37.9167 37.3569 37.357 37.9166 36.6667 37.9166C35.9763 37.9166 35.4167 37.3569 35.4167 36.6666C35.4167 32.7546 32.2453 29.5833 28.3333 29.5833C24.4214 29.5833 21.25 32.7546 21.25 36.6666C21.25 37.3569 20.6904 37.9166 20 37.9166C19.3096 37.9166 18.75 37.3569 18.75 36.6666Z" fill="#DE6B64"/>
<path fill-rule="evenodd" clip-rule="evenodd" d="M10.4167 20.0001C10.4167 14.7074 14.7074 10.4167 20.0001 10.4167C25.2928 10.4167 29.5834 14.7074 29.5834 20.0001C29.5834 20.6904 29.0238 21.2501 28.3334 21.2501C27.6431 21.2501 27.0834 20.6904 27.0834 20.0001C27.0834 16.0881 23.9121 12.9167 20.0001 12.9167C16.0881 12.9167 12.9167 16.0881 12.9167 20.0001C12.9167 20.6904 12.3571 21.2501 11.6667 21.2501C10.9764 21.2501 10.4167 20.6904 10.4167 20.0001Z" fill="#DE6B64"/>
</svg>
