<svg width="40" height="40" viewBox="0 0 40 40" fill="none" xmlns="http://www.w3.org/2000/svg">
<path fill-rule="evenodd" clip-rule="evenodd" d="M21.2573 5.83325C21.2573 5.1429 20.6977 4.58325 20.0073 4.58325C19.317 4.58325 18.7573 5.1429 18.7573 5.83325V9.63111C16.9478 9.77046 15.2268 10.2074 13.6409 10.8536L12.0691 8.66037C11.6669 8.09924 10.8861 7.97036 10.3249 8.3725C9.76379 8.77465 9.63491 9.55554 10.0371 10.1167L11.3659 11.9708C10.3534 12.5574 9.41942 13.2256 8.58009 13.9448C5.72962 16.3871 3.75 19.6195 3.75 22.4999C3.75 25.3803 5.72962 28.6127 8.58009 31.055C11.4797 33.5395 15.5093 35.4166 20 35.4166C24.4905 35.4166 28.52 33.5409 31.4198 31.057C34.2705 28.615 36.25 25.3826 36.25 22.4999C36.25 19.6172 34.2705 16.3848 31.4198 13.9429C30.7778 13.393 30.0805 12.8729 29.335 12.3963L30.7035 10.4868C31.1057 9.92567 30.9768 9.14478 30.4157 8.74263C29.8546 8.34048 29.0737 8.46935 28.6715 9.03048L27.1264 11.1864C25.3381 10.3598 23.3575 9.79575 21.2573 9.63221V5.83325ZM10.2067 15.8432C7.62826 18.0525 6.25 20.6535 6.25 22.4999C6.25 24.3464 7.62826 26.9473 10.2067 29.1566C12.736 31.3237 16.2065 32.9166 20 32.9166C23.7938 32.9166 27.2643 31.3248 29.7934 29.1583C32.3716 26.9498 33.75 24.3489 33.75 22.4999C33.75 20.6509 32.3716 18.05 29.7934 15.8415C27.2643 13.6751 23.7938 12.0833 20 12.0833C16.2065 12.0833 12.736 13.6761 10.2067 15.8432ZM13.75 22.5C13.75 19.0482 16.5482 16.25 20 16.25C23.4518 16.25 26.25 19.0482 26.25 22.5C26.25 25.9518 23.4518 28.75 20 28.75C16.5482 28.75 13.75 25.9518 13.75 22.5ZM20 18.75C17.9289 18.75 16.25 20.4289 16.25 22.5C16.25 24.5711 17.9289 26.25 20 26.25C22.0711 26.25 23.75 24.5711 23.75 22.5C23.75 20.4289 22.0711 18.75 20 18.75Z" fill="#65D28F"/>
</svg>
