<svg width="80" height="80" viewBox="0 0 80 80" fill="none" xmlns="http://www.w3.org/2000/svg">
<rect width="80" height="80" rx="40" fill="#8BBCFF"/>
<path fill-rule="evenodd" clip-rule="evenodd" d="M50.8334 22.0833C47.8419 22.0833 45.4167 24.5084 45.4167 27.4999C45.4167 30.4914 47.8419 32.9166 50.8334 32.9166C53.8249 32.9166 56.2501 30.4914 56.2501 27.4999C56.2501 24.5084 53.8249 22.0833 50.8334 22.0833ZM47.9167 27.4999C47.9167 25.8891 49.2226 24.5833 50.8334 24.5833C52.4442 24.5833 53.7501 25.8891 53.7501 27.4999C53.7501 29.1107 52.4442 30.4166 50.8334 30.4166C49.2226 30.4166 47.9167 29.1107 47.9167 27.4999ZM36.154 27.8525C35.9615 27.3904 35.5118 27.0877 35.0112 27.0833C34.5106 27.0789 34.0556 27.3736 33.855 27.8322L22.1883 54.4989C22.0192 54.8854 22.0565 55.3311 22.2874 55.6841C22.5183 56.0371 22.9117 56.2499 23.3335 56.2499H56.6668C57.1172 56.2499 57.5327 56.0077 57.7546 55.6158C57.9765 55.2239 57.9704 54.743 57.7387 54.3568L47.7387 37.6901C47.4875 37.2715 47.0157 37.0374 46.5304 37.0907C46.0452 37.144 45.6353 37.4749 45.481 37.938L43.2033 44.7709L36.154 27.8525ZM54.4591 53.7499H25.2448L34.9721 31.516L42.1797 48.814C42.3801 49.2952 42.8582 49.6015 43.3791 49.5824C43.9001 49.5634 44.3545 49.2231 44.5194 48.7285L46.9932 41.3068L54.4591 53.7499Z" fill="white"/>
</svg>
