<svg width="80" height="80" viewBox="0 0 80 80" fill="none" xmlns="http://www.w3.org/2000/svg">
<rect width="80" height="80" rx="40" fill="#596523"/>
<path fill-rule="evenodd" clip-rule="evenodd" d="M32.0833 24.5833C32.0833 23.8929 31.5236 23.3333 30.8333 23.3333C30.1429 23.3333 29.5833 23.8929 29.5833 24.5833V29.1667H25C24.3096 29.1667 23.75 29.7264 23.75 30.4167C23.75 31.1071 24.3096 31.6667 25 31.6667H29.5833V36.2499C29.5833 36.9403 30.1429 37.4999 30.8333 37.4999C31.5236 37.4999 32.0833 36.9403 32.0833 36.2499V31.6667H36.6667C37.357 31.6667 37.9167 31.1071 37.9167 30.4167C37.9167 29.7264 37.357 29.1667 36.6667 29.1667H32.0833V24.5833ZM43.3333 29.1667C42.6429 29.1667 42.0833 29.7264 42.0833 30.4167C42.0833 31.1071 42.6429 31.6667 43.3333 31.6667H54.9999C55.6903 31.6667 56.2499 31.1071 56.2499 30.4167C56.2499 29.7264 55.6903 29.1667 54.9999 29.1667H43.3333ZM36.4309 45.3365C36.919 44.8484 36.919 44.0569 36.4309 43.5688C35.9427 43.0806 35.1512 43.0806 34.6631 43.5688L30.8329 47.3989L27.0028 43.5688C26.5146 43.0806 25.7232 43.0806 25.235 43.5688C24.7469 44.0569 24.7469 44.8484 25.235 45.3365L29.0652 49.1667L25.235 52.9968C24.7469 53.485 24.7469 54.2764 25.235 54.7646C25.7232 55.2528 26.5146 55.2528 27.0028 54.7646L30.8329 50.9344L34.6631 54.7646C35.1513 55.2528 35.9427 55.2528 36.4309 54.7646C36.919 54.2764 36.919 53.485 36.4309 52.9968L32.6007 49.1667L36.4309 45.3365ZM42.0833 46.25C42.0833 45.5596 42.6429 45 43.3333 45H54.9999C55.6903 45 56.2499 45.5596 56.2499 46.25C56.2499 46.9404 55.6903 47.5 54.9999 47.5H43.3333C42.6429 47.5 42.0833 46.9404 42.0833 46.25ZM42.0833 52.9167C42.0833 52.2264 42.6429 51.6667 43.3333 51.6667H54.9999C55.6903 51.6667 56.2499 52.2264 56.2499 52.9167C56.2499 53.6071 55.6903 54.1667 54.9999 54.1667H43.3333C42.6429 54.1667 42.0833 53.6071 42.0833 52.9167Z" fill="white"/>
</svg>
