<svg width="40" height="40" viewBox="0 0 40 40" fill="none" xmlns="http://www.w3.org/2000/svg">
<path fill-rule="evenodd" clip-rule="evenodd" d="M33.3839 2.44937C32.8957 1.96121 32.1043 1.96121 31.6161 2.44937L19.1161 14.9494C18.8817 15.1838 18.75 15.5017 18.75 15.8333V19.9999C18.75 20.6903 19.3096 21.2499 20 21.2499H24.1667C24.4982 21.2499 24.8161 21.1182 25.0506 20.8838L37.5506 8.3838C38.0387 7.89565 38.0387 7.10419 37.5506 6.61603L33.3839 2.44937ZM21.25 18.7499V16.351L32.5 5.10102L34.8989 7.49992L23.6489 18.7499H21.25ZM7.50004 18.75C4.5085 18.75 2.08337 21.1751 2.08337 24.1667C2.08337 27.1582 4.5085 29.5833 7.50004 29.5833H32.5C34.1109 29.5833 35.4167 30.8892 35.4167 32.5C35.4167 34.1108 34.1109 35.4167 32.5 35.4167H15C14.3097 35.4167 13.75 35.9763 13.75 36.6667C13.75 37.357 14.3097 37.9167 15 37.9167H32.5C35.4916 37.9167 37.9167 35.4915 37.9167 32.5C37.9167 29.5085 35.4916 27.0833 32.5 27.0833H7.50004C5.88922 27.0833 4.58337 25.7775 4.58337 24.1667C4.58337 22.5559 5.88922 21.25 7.50004 21.25H13.3334C14.0237 21.25 14.5834 20.6904 14.5834 20C14.5834 19.3096 14.0237 18.75 13.3334 18.75H7.50004Z" fill="#65D28F"/>
</svg>
